<svg id="visual" viewBox="0 0 960 300" width="960" height="300" xmlns="http://www.w3.org/2000/svg" xmlns:xlink="http://www.w3.org/1999/xlink" version="1.1"><rect x="0" y="0" width="960" height="300" fill="#7f5466"></rect><path d="M0 142L22.8 143.5C45.7 145 91.3 148 137 154.5C182.7 161 228.3 171 274 176.3C319.7 181.7 365.3 182.3 411.2 176.2C457 170 503 157 548.8 152.2C594.7 147.3 640.3 150.7 686 156.8C731.7 163 777.3 172 823 174.5C868.7 177 914.3 173 937.2 171L960 169L960 0L937.2 0C914.3 0 868.7 0 823 0C777.3 0 731.7 0 686 0C640.3 0 594.7 0 548.8 0C503 0 457 0 411.2 0C365.3 0 319.7 0 274 0C228.3 0 182.7 0 137 0C91.3 0 45.7 0 22.8 0L0 0Z" fill="#ffefa8"></path><path d="M0 152L22.8 144.2C45.7 136.3 91.3 120.7 137 117.5C182.7 114.3 228.3 123.7 274 128.5C319.7 133.3 365.3 133.7 411.2 130C457 126.3 503 118.7 548.8 113.8C594.7 109 640.3 107 686 104.7C731.7 102.3 777.3 99.7 823 101.3C868.7 103 914.3 109 937.2 112L960 115L960 0L937.2 0C914.3 0 868.7 0 823 0C777.3 0 731.7 0 686 0C640.3 0 594.7 0 548.8 0C503 0 457 0 411.2 0C365.3 0 319.7 0 274 0C228.3 0 182.7 0 137 0C91.3 0 45.7 0 22.8 0L0 0Z" fill="#fec890"></path><path d="M0 123L22.8 123.3C45.7 123.7 91.3 124.3 137 124C182.7 123.7 228.3 122.3 274 120.2C319.7 118 365.3 115 411.2 107.5C457 100 503 88 548.8 90.7C594.7 93.3 640.3 110.7 686 117.8C731.7 125 777.3 122 823 117.2C868.7 112.3 914.3 105.7 937.2 102.3L960 99L960 0L937.2 0C914.3 0 868.7 0 823 0C777.3 0 731.7 0 686 0C640.3 0 594.7 0 548.8 0C503 0 457 0 411.2 0C365.3 0 319.7 0 274 0C228.3 0 182.7 0 137 0C91.3 0 45.7 0 22.8 0L0 0Z" fill="#f5a387"></path><path d="M0 58L22.8 62.3C45.7 66.7 91.3 75.3 137 76.7C182.7 78 228.3 72 274 72.3C319.7 72.7 365.3 79.3 411.2 79.3C457 79.3 503 72.7 548.8 65.8C594.7 59 640.3 52 686 50.2C731.7 48.3 777.3 51.7 823 58.7C868.7 65.7 914.3 76.3 937.2 81.7L960 87L960 0L937.2 0C914.3 0 868.7 0 823 0C777.3 0 731.7 0 686 0C640.3 0 594.7 0 548.8 0C503 0 457 0 411.2 0C365.3 0 319.7 0 274 0C228.3 0 182.7 0 137 0C91.3 0 45.7 0 22.8 0L0 0Z" fill="#e08288"></path><path d="M0 37L22.8 37.2C45.7 37.3 91.3 37.7 137 37.2C182.7 36.7 228.3 35.3 274 35C319.7 34.7 365.3 35.3 411.2 36.8C457 38.3 503 40.7 548.8 38.7C594.7 36.7 640.3 30.3 686 27.7C731.7 25 777.3 26 823 30.8C868.7 35.7 914.3 44.3 937.2 48.7L960 53L960 0L937.2 0C914.3 0 868.7 0 823 0C777.3 0 731.7 0 686 0C640.3 0 594.7 0 548.8 0C503 0 457 0 411.2 0C365.3 0 319.7 0 274 0C228.3 0 182.7 0 137 0C91.3 0 45.7 0 22.8 0L0 0Z" fill="#bf678c"></path></svg>