<svg id="visual" viewBox="0 0 960 300" width="960" height="300" xmlns="http://www.w3.org/2000/svg" xmlns:xlink="http://www.w3.org/1999/xlink" version="1.1"><rect x="0" y="0" width="960" height="300" fill="#0A1320"></rect><path d="M0 167L22.8 174.8C45.7 182.7 91.3 198.3 137 205.7C182.7 213 228.3 212 274 201.8C319.7 191.7 365.3 172.3 411.2 164.7C457 157 503 161 548.8 167.8C594.7 174.7 640.3 184.3 686 189.8C731.7 195.3 777.3 196.7 823 190.5C868.7 184.3 914.3 170.7 937.2 163.8L960 157L960 0L937.2 0C914.3 0 868.7 0 823 0C777.3 0 731.7 0 686 0C640.3 0 594.7 0 548.8 0C503 0 457 0 411.2 0C365.3 0 319.7 0 274 0C228.3 0 182.7 0 137 0C91.3 0 45.7 0 22.8 0L0 0Z" fill="#2a3551"></path><path d="M0 154L22.8 150.5C45.7 147 91.3 140 137 139.3C182.7 138.7 228.3 144.3 274 149.5C319.7 154.7 365.3 159.3 411.2 161.5C457 163.7 503 163.3 548.8 155C594.7 146.7 640.3 130.3 686 129.7C731.7 129 777.3 144 823 143.8C868.7 143.7 914.3 128.3 937.2 120.7L960 113L960 0L937.2 0C914.3 0 868.7 0 823 0C777.3 0 731.7 0 686 0C640.3 0 594.7 0 548.8 0C503 0 457 0 411.2 0C365.3 0 319.7 0 274 0C228.3 0 182.7 0 137 0C91.3 0 45.7 0 22.8 0L0 0Z" fill="#3b3352"></path><path d="M0 102L22.8 101.5C45.7 101 91.3 100 137 106C182.7 112 228.3 125 274 126.2C319.7 127.3 365.3 116.7 411.2 111.5C457 106.3 503 106.7 548.8 104.8C594.7 103 640.3 99 686 101.8C731.7 104.7 777.3 114.3 823 113C868.7 111.7 914.3 99.3 937.2 93.2L960 87L960 0L937.2 0C914.3 0 868.7 0 823 0C777.3 0 731.7 0 686 0C640.3 0 594.7 0 548.8 0C503 0 457 0 411.2 0C365.3 0 319.7 0 274 0C228.3 0 182.7 0 137 0C91.3 0 45.7 0 22.8 0L0 0Z" fill="#4c2f4f"></path><path d="M0 70L22.8 67.2C45.7 64.3 91.3 58.7 137 63.5C182.7 68.3 228.3 83.7 274 86.2C319.7 88.7 365.3 78.3 411.2 78.3C457 78.3 503 88.7 548.8 90C594.7 91.3 640.3 83.7 686 79.5C731.7 75.3 777.3 74.7 823 78.5C868.7 82.3 914.3 90.7 937.2 94.8L960 99L960 0L937.2 0C914.3 0 868.7 0 823 0C777.3 0 731.7 0 686 0C640.3 0 594.7 0 548.8 0C503 0 457 0 411.2 0C365.3 0 319.7 0 274 0C228.3 0 182.7 0 137 0C91.3 0 45.7 0 22.8 0L0 0Z" fill="#5b2c47"></path><path d="M0 32L22.8 30.3C45.7 28.7 91.3 25.3 137 29.5C182.7 33.7 228.3 45.3 274 52.2C319.7 59 365.3 61 411.2 61.2C457 61.3 503 59.7 548.8 58.3C594.7 57 640.3 56 686 51.5C731.7 47 777.3 39 823 34.2C868.7 29.3 914.3 27.7 937.2 26.8L960 26L960 0L937.2 0C914.3 0 868.7 0 823 0C777.3 0 731.7 0 686 0C640.3 0 594.7 0 548.8 0C503 0 457 0 411.2 0C365.3 0 319.7 0 274 0C228.3 0 182.7 0 137 0C91.3 0 45.7 0 22.8 0L0 0Z" fill="#652a3b"></path></svg>